<?xml version="1.0" encoding="UTF-8"?>
<svg width="2432" height="1442" viewBox="0 0 2432 1442" fill="none" xmlns="http://www.w3.org/2000/svg">
  <rect width="2432" height="1442" fill="#1E293B"/>
  <rect x="32" y="32" width="2368" height="1378" rx="8" fill="#0F172A"/>
  <rect x="48" y="48" width="2336" height="64" rx="4" fill="#1E293B"/>
  <rect x="48" y="128" width="2336" height="32" rx="4" fill="#1E293B"/>
  <rect x="48" y="176" width="2336" height="32" rx="4" fill="#1E293B"/>
  <rect x="48" y="224" width="2336" height="32" rx="4" fill="#1E293B"/>
  <rect x="48" y="272" width="2336" height="32" rx="4" fill="#1E293B"/>
  <rect x="48" y="320" width="2336" height="32" rx="4" fill="#1E293B"/>
  <rect x="48" y="368" width="2336" height="32" rx="4" fill="#1E293B"/>
  <rect x="48" y="416" width="2336" height="32" rx="4" fill="#1E293B"/>
  <rect x="48" y="464" width="2336" height="32" rx="4" fill="#1E293B"/>
  <rect x="48" y="512" width="2336" height="32" rx="4" fill="#1E293B"/>
  <rect x="48" y="560" width="2336" height="32" rx="4" fill="#1E293B"/>
  <rect x="48" y="608" width="2336" height="32" rx="4" fill="#1E293B"/>
  <rect x="48" y="656" width="2336" height="32" rx="4" fill="#1E293B"/>
  <rect x="48" y="704" width="2336" height="32" rx="4" fill="#1E293B"/>
  <rect x="48" y="752" width="2336" height="32" rx="4" fill="#1E293B"/>
  <rect x="48" y="800" width="2336" height="32" rx="4" fill="#1E293B"/>
  <rect x="48" y="848" width="2336" height="32" rx="4" fill="#1E293B"/>
  <rect x="48" y="896" width="2336" height="32" rx="4" fill="#1E293B"/>
  <rect x="48" y="944" width="2336" height="32" rx="4" fill="#1E293B"/>
  <rect x="48" y="992" width="2336" height="32" rx="4" fill="#1E293B"/>
  <rect x="48" y="1040" width="2336" height="32" rx="4" fill="#1E293B"/>
  <rect x="48" y="1088" width="2336" height="32" rx="4" fill="#1E293B"/>
  <rect x="48" y="1136" width="2336" height="32" rx="4" fill="#1E293B"/>
  <rect x="48" y="1184" width="2336" height="32" rx="4" fill="#1E293B"/>
  <rect x="48" y="1232" width="2336" height="32" rx="4" fill="#1E293B"/>
  <rect x="48" y="1280" width="2336" height="32" rx="4" fill="#1E293B"/>
  <rect x="48" y="1328" width="2336" height="32" rx="4" fill="#1E293B"/>
  <rect x="48" y="1376" width="2336" height="32" rx="4" fill="#1E293B"/>
</svg> 